<mxfile host="app.diagrams.net" agent="Mozilla/5.0 (Windows NT 10.0; Win64; x64) AppleWebKit/537.36 (KHTML, like Gecko) Chrome/130.0.0.0 Safari/537.36 Edg/130.0.0.0" version="25.0.3">
  <diagram name="Page-1" id="EjsbMdNxCGZ8m0mxx56r">
    <mxGraphModel dx="1386" dy="755" grid="1" gridSize="10" guides="1" tooltips="1" connect="1" arrows="1" fold="1" page="1" pageScale="1" pageWidth="850" pageHeight="1100" math="0" shadow="0">
      <root>
        <mxCell id="0" />
        <mxCell id="1" parent="0" />
        <mxCell id="vr0eiFD3yKQDkcYfbocp-15" value="" style="rounded=0;whiteSpace=wrap;html=1;" vertex="1" parent="1">
          <mxGeometry x="120" y="230" width="150" height="140" as="geometry" />
        </mxCell>
        <mxCell id="vr0eiFD3yKQDkcYfbocp-30" style="edgeStyle=orthogonalEdgeStyle;rounded=0;orthogonalLoop=1;jettySize=auto;html=1;" edge="1" parent="1" source="vr0eiFD3yKQDkcYfbocp-1" target="vr0eiFD3yKQDkcYfbocp-29">
          <mxGeometry relative="1" as="geometry" />
        </mxCell>
        <mxCell id="vr0eiFD3yKQDkcYfbocp-1" value="User Service" style="rounded=0;whiteSpace=wrap;html=1;" vertex="1" parent="1">
          <mxGeometry x="365" y="230" width="120" height="40" as="geometry" />
        </mxCell>
        <mxCell id="vr0eiFD3yKQDkcYfbocp-2" value="Admin" style="shape=umlActor;verticalLabelPosition=bottom;verticalAlign=top;html=1;outlineConnect=0;" vertex="1" parent="1">
          <mxGeometry x="60" y="250" width="30" height="60" as="geometry" />
        </mxCell>
        <mxCell id="vr0eiFD3yKQDkcYfbocp-5" value="Worker" style="shape=umlActor;verticalLabelPosition=bottom;verticalAlign=top;html=1;outlineConnect=0;" vertex="1" parent="1">
          <mxGeometry x="58" y="391" width="30" height="60" as="geometry" />
        </mxCell>
        <mxCell id="vr0eiFD3yKQDkcYfbocp-9" value="A&lt;div&gt;P&lt;/div&gt;&lt;div&gt;I&lt;/div&gt;&lt;div&gt;&amp;nbsp;G&lt;div&gt;a&lt;/div&gt;&lt;div&gt;t&lt;/div&gt;&lt;div&gt;e&lt;/div&gt;&lt;div&gt;w&lt;/div&gt;&lt;div&gt;a&lt;/div&gt;&lt;div&gt;y&lt;/div&gt;&lt;/div&gt;" style="rounded=1;whiteSpace=wrap;html=1;" vertex="1" parent="1">
          <mxGeometry x="300" y="240" width="20" height="290" as="geometry" />
        </mxCell>
        <mxCell id="vr0eiFD3yKQDkcYfbocp-10" value="" style="endArrow=classic;html=1;rounded=0;" edge="1" parent="1" source="vr0eiFD3yKQDkcYfbocp-2">
          <mxGeometry width="50" height="50" relative="1" as="geometry">
            <mxPoint x="400" y="510" as="sourcePoint" />
            <mxPoint x="150" y="280" as="targetPoint" />
          </mxGeometry>
        </mxCell>
        <mxCell id="vr0eiFD3yKQDkcYfbocp-12" value="" style="endArrow=classic;html=1;rounded=0;exitX=1;exitY=0.5;exitDx=0;exitDy=0;entryX=0;entryY=0.136;entryDx=0;entryDy=0;entryPerimeter=0;" edge="1" parent="1" source="vr0eiFD3yKQDkcYfbocp-11" target="vr0eiFD3yKQDkcYfbocp-9">
          <mxGeometry width="50" height="50" relative="1" as="geometry">
            <mxPoint x="400" y="510" as="sourcePoint" />
            <mxPoint x="450" y="460" as="targetPoint" />
          </mxGeometry>
        </mxCell>
        <mxCell id="vr0eiFD3yKQDkcYfbocp-13" value="" style="html=1;verticalLabelPosition=bottom;align=center;labelBackgroundColor=#ffffff;verticalAlign=top;strokeWidth=2;strokeColor=#0080F0;shadow=0;dashed=0;shape=mxgraph.ios7.icons.smartphone;" vertex="1" parent="1">
          <mxGeometry x="180" y="330" width="18" height="30" as="geometry" />
        </mxCell>
        <mxCell id="vr0eiFD3yKQDkcYfbocp-11" value="Web App" style="swimlane;whiteSpace=wrap;html=1;" vertex="1" parent="1">
          <mxGeometry x="150" y="250" width="90" height="60" as="geometry" />
        </mxCell>
        <mxCell id="vr0eiFD3yKQDkcYfbocp-14" value="" style="html=1;verticalLabelPosition=bottom;align=center;labelBackgroundColor=#ffffff;verticalAlign=top;strokeWidth=2;strokeColor=#0080F0;shadow=0;dashed=0;shape=mxgraph.ios7.icons.smartphone;" vertex="1" parent="1">
          <mxGeometry x="180" y="405" width="18" height="30" as="geometry" />
        </mxCell>
        <mxCell id="vr0eiFD3yKQDkcYfbocp-16" value="" style="curved=1;endArrow=classic;html=1;rounded=0;entryX=0.167;entryY=0.667;entryDx=0;entryDy=0;entryPerimeter=0;" edge="1" parent="1" source="vr0eiFD3yKQDkcYfbocp-2" target="vr0eiFD3yKQDkcYfbocp-13">
          <mxGeometry width="50" height="50" relative="1" as="geometry">
            <mxPoint x="400" y="510" as="sourcePoint" />
            <mxPoint x="450" y="460" as="targetPoint" />
            <Array as="points">
              <mxPoint x="150" y="330" />
            </Array>
          </mxGeometry>
        </mxCell>
        <mxCell id="vr0eiFD3yKQDkcYfbocp-17" value="" style="endArrow=classic;html=1;rounded=0;entryX=-0.111;entryY=0.533;entryDx=0;entryDy=0;entryPerimeter=0;" edge="1" parent="1" source="vr0eiFD3yKQDkcYfbocp-5" target="vr0eiFD3yKQDkcYfbocp-14">
          <mxGeometry width="50" height="50" relative="1" as="geometry">
            <mxPoint x="400" y="510" as="sourcePoint" />
            <mxPoint x="450" y="460" as="targetPoint" />
          </mxGeometry>
        </mxCell>
        <mxCell id="vr0eiFD3yKQDkcYfbocp-18" value="" style="html=1;verticalLabelPosition=bottom;align=center;labelBackgroundColor=#ffffff;verticalAlign=top;strokeWidth=2;strokeColor=#0080F0;shadow=0;dashed=0;shape=mxgraph.ios7.icons.smartphone;" vertex="1" parent="1">
          <mxGeometry x="180" y="490" width="18" height="30" as="geometry" />
        </mxCell>
        <mxCell id="vr0eiFD3yKQDkcYfbocp-19" value="Worker" style="shape=umlActor;verticalLabelPosition=bottom;verticalAlign=top;html=1;outlineConnect=0;" vertex="1" parent="1">
          <mxGeometry x="57" y="480" width="30" height="60" as="geometry" />
        </mxCell>
        <mxCell id="vr0eiFD3yKQDkcYfbocp-21" style="edgeStyle=orthogonalEdgeStyle;rounded=0;orthogonalLoop=1;jettySize=auto;html=1;entryX=0;entryY=0.667;entryDx=0;entryDy=0;entryPerimeter=0;" edge="1" parent="1" source="vr0eiFD3yKQDkcYfbocp-19" target="vr0eiFD3yKQDkcYfbocp-18">
          <mxGeometry relative="1" as="geometry" />
        </mxCell>
        <mxCell id="vr0eiFD3yKQDkcYfbocp-22" style="edgeStyle=orthogonalEdgeStyle;rounded=0;orthogonalLoop=1;jettySize=auto;html=1;entryX=-0.1;entryY=0.621;entryDx=0;entryDy=0;entryPerimeter=0;" edge="1" parent="1" source="vr0eiFD3yKQDkcYfbocp-14" target="vr0eiFD3yKQDkcYfbocp-9">
          <mxGeometry relative="1" as="geometry" />
        </mxCell>
        <mxCell id="vr0eiFD3yKQDkcYfbocp-23" style="edgeStyle=orthogonalEdgeStyle;rounded=0;orthogonalLoop=1;jettySize=auto;html=1;entryX=-0.15;entryY=0.917;entryDx=0;entryDy=0;entryPerimeter=0;" edge="1" parent="1" source="vr0eiFD3yKQDkcYfbocp-18" target="vr0eiFD3yKQDkcYfbocp-9">
          <mxGeometry relative="1" as="geometry" />
        </mxCell>
        <mxCell id="vr0eiFD3yKQDkcYfbocp-24" value="Transaction" style="rounded=0;whiteSpace=wrap;html=1;" vertex="1" parent="1">
          <mxGeometry x="365" y="330" width="120" height="40" as="geometry" />
        </mxCell>
        <mxCell id="vr0eiFD3yKQDkcYfbocp-25" value="Sale Service" style="rounded=0;whiteSpace=wrap;html=1;" vertex="1" parent="1">
          <mxGeometry x="365" y="380" width="120" height="40" as="geometry" />
        </mxCell>
        <mxCell id="vr0eiFD3yKQDkcYfbocp-35" style="edgeStyle=orthogonalEdgeStyle;rounded=0;orthogonalLoop=1;jettySize=auto;html=1;" edge="1" parent="1" source="vr0eiFD3yKQDkcYfbocp-26">
          <mxGeometry relative="1" as="geometry">
            <mxPoint x="670" y="390" as="targetPoint" />
          </mxGeometry>
        </mxCell>
        <mxCell id="vr0eiFD3yKQDkcYfbocp-26" value="Production Service" style="rounded=0;whiteSpace=wrap;html=1;" vertex="1" parent="1">
          <mxGeometry x="365" y="500" width="120" height="40" as="geometry" />
        </mxCell>
        <mxCell id="vr0eiFD3yKQDkcYfbocp-31" style="edgeStyle=orthogonalEdgeStyle;rounded=0;orthogonalLoop=1;jettySize=auto;html=1;entryX=0.5;entryY=0;entryDx=0;entryDy=0;entryPerimeter=0;" edge="1" parent="1" source="vr0eiFD3yKQDkcYfbocp-27" target="vr0eiFD3yKQDkcYfbocp-29">
          <mxGeometry relative="1" as="geometry">
            <mxPoint x="670" y="300" as="targetPoint" />
            <Array as="points">
              <mxPoint x="570" y="300" />
              <mxPoint x="570" y="250" />
              <mxPoint x="670" y="250" />
            </Array>
          </mxGeometry>
        </mxCell>
        <mxCell id="vr0eiFD3yKQDkcYfbocp-36" value="" style="edgeStyle=orthogonalEdgeStyle;rounded=0;orthogonalLoop=1;jettySize=auto;html=1;" edge="1" parent="1" source="vr0eiFD3yKQDkcYfbocp-27" target="vr0eiFD3yKQDkcYfbocp-1">
          <mxGeometry relative="1" as="geometry" />
        </mxCell>
        <mxCell id="vr0eiFD3yKQDkcYfbocp-27" value="Report Service" style="rounded=0;whiteSpace=wrap;html=1;" vertex="1" parent="1">
          <mxGeometry x="365" y="280" width="120" height="40" as="geometry" />
        </mxCell>
        <mxCell id="vr0eiFD3yKQDkcYfbocp-28" value="Account Service" style="rounded=0;whiteSpace=wrap;html=1;" vertex="1" parent="1">
          <mxGeometry x="365" y="440" width="120" height="40" as="geometry" />
        </mxCell>
        <mxCell id="vr0eiFD3yKQDkcYfbocp-29" value="" style="shape=cylinder3;whiteSpace=wrap;html=1;boundedLbl=1;backgroundOutline=1;size=15;" vertex="1" parent="1">
          <mxGeometry x="640" y="311" width="60" height="80" as="geometry" />
        </mxCell>
        <mxCell id="vr0eiFD3yKQDkcYfbocp-32" style="edgeStyle=orthogonalEdgeStyle;rounded=0;orthogonalLoop=1;jettySize=auto;html=1;" edge="1" parent="1" source="vr0eiFD3yKQDkcYfbocp-24">
          <mxGeometry relative="1" as="geometry">
            <mxPoint x="671" y="310" as="targetPoint" />
            <Array as="points">
              <mxPoint x="570" y="350" />
              <mxPoint x="570" y="250" />
              <mxPoint x="671" y="250" />
            </Array>
          </mxGeometry>
        </mxCell>
        <mxCell id="vr0eiFD3yKQDkcYfbocp-33" style="edgeStyle=orthogonalEdgeStyle;rounded=0;orthogonalLoop=1;jettySize=auto;html=1;" edge="1" parent="1" source="vr0eiFD3yKQDkcYfbocp-25">
          <mxGeometry relative="1" as="geometry">
            <mxPoint x="670" y="400" as="targetPoint" />
            <Array as="points">
              <mxPoint x="600" y="400" />
              <mxPoint x="600" y="460" />
              <mxPoint x="670" y="460" />
            </Array>
          </mxGeometry>
        </mxCell>
        <mxCell id="vr0eiFD3yKQDkcYfbocp-34" style="edgeStyle=orthogonalEdgeStyle;rounded=0;orthogonalLoop=1;jettySize=auto;html=1;entryX=0.5;entryY=1;entryDx=0;entryDy=0;entryPerimeter=0;" edge="1" parent="1" source="vr0eiFD3yKQDkcYfbocp-28" target="vr0eiFD3yKQDkcYfbocp-29">
          <mxGeometry relative="1" as="geometry" />
        </mxCell>
      </root>
    </mxGraphModel>
  </diagram>
</mxfile>
